<svg xmlns="http://www.w3.org/2000/svg" width="1250" height="81" fill="none" viewBox="0 0 1250 81">
  <g clip-path="url(#a)">
    <path fill="#EEF3FE" d="M497.109 57.53h-20.727a8.93 8.93 0 0 1-6.336-2.643 9.061 9.061 0 0 1-2.624-6.383V32.496a9.057 9.057 0 0 1 .822-3.783 8.999 8.999 0 0 1 2.325-3.085 8.877 8.877 0 0 1 5.81-2.155h20.728l.002 34.057Z"/>
    <path fill="#F4F7FE" d="M545.42 75.324h-41.397c-1.521 0-3.026-.302-4.431-.888a11.583 11.583 0 0 1-3.757-2.53 11.674 11.674 0 0 1-2.509-3.784 11.738 11.738 0 0 1-.881-4.464V17.343c0-3.093 1.22-6.06 3.391-8.247a11.536 11.536 0 0 1 8.187-3.416h41.397v69.644Z"/>
    <path fill="#F8FAFF" d="M545.426 1.528v77.938c0 .846.68 1.531 1.52 1.531h6.075c.839 0 1.52-.686 1.52-1.531V1.528c0-.845-.681-1.531-1.52-1.531h-6.075c-.84 0-1.52.686-1.52 1.531Z"/>
    <path fill="#F4F7FE" d="M554.543 30.048v-11.87h28.177a5.853 5.853 0 0 1 4.166 1.74 5.94 5.94 0 0 1 1.724 4.197c0 1.573-.62 3.083-1.725 4.195a5.866 5.866 0 0 1-4.165 1.738h-28.177Zm34.066 26.837c0 1.574-.62 3.083-1.725 4.196a5.868 5.868 0 0 1-4.165 1.738h-28.177v-11.87h28.177c1.562 0 3.061.625 4.165 1.738a5.954 5.954 0 0 1 1.725 4.196v.002Z"/>
    <path fill="#EEF3FE" d="M545.42 75.324h-41.397c-1.521 0-3.026-.302-4.431-.888a11.583 11.583 0 0 1-3.757-2.53 11.674 11.674 0 0 1-2.509-3.784 11.738 11.738 0 0 1-.881-4.464V17.343c0-3.093 1.22-6.06 3.391-8.247a11.536 11.536 0 0 1 8.187-3.416c3.447 50.01 41.397 54.608 41.397 54.608v15.036Z"/>
    <path fill="#E8EDFA" d="M545.426 75.32V5.678h-3.338V75.32h3.338Z"/>
    <path fill="#E2E9F9" d="M527.921 75.323h-23.902a11.49 11.49 0 0 1-4.431-.888 11.568 11.568 0 0 1-3.756-2.529 11.662 11.662 0 0 1-2.51-3.784 11.74 11.74 0 0 1-.881-4.464V31.144c.005 32.834 35.48 44.18 35.48 44.18Z"/>
    <path fill="#DADFEA" d="M492.449 57.53V23.472h-2.165V57.53h2.165Zm66.219-27.482v-11.87h-4.125v11.87h4.125Zm.004 32.771v-11.87h-4.125v11.87h4.125Z"/>
    <path fill="#E8EDFA" d="M492.447 57.53h-16.065a8.93 8.93 0 0 1-6.336-2.644 9.061 9.061 0 0 1-2.624-6.383V32.496a9.058 9.058 0 0 1 .822-3.784 8.999 8.999 0 0 1 2.325-3.084c-3.037 24.95 21.875 28.761 21.875 28.761l.003 3.14Z"/>
    <path fill="#EEF3FE" d="M742.734 57.53h20.728a8.93 8.93 0 0 0 6.336-2.643 9.061 9.061 0 0 0 2.624-6.383V32.496a9.043 9.043 0 0 0-.823-3.783 8.986 8.986 0 0 0-2.325-3.085 8.875 8.875 0 0 0-5.81-2.155h-20.727l-.003 34.057Z"/>
    <path fill="#F4F7FE" d="M694.422 75.324h41.405c1.52 0 3.026-.302 4.431-.888a11.568 11.568 0 0 0 3.756-2.53 11.677 11.677 0 0 0 2.51-3.784c.581-1.415.881-2.932.88-4.464V17.343c0-3.093-1.219-6.06-3.391-8.247a11.534 11.534 0 0 0-8.186-3.416h-41.405v69.644Z"/>
    <path fill="#F8FAFF" d="M685.301 1.528v77.938c0 .846.68 1.531 1.52 1.531h6.075c.839 0 1.52-.686 1.52-1.531V1.528c0-.845-.681-1.531-1.52-1.531h-6.075c-.84 0-1.52.686-1.52 1.531Z"/>
    <path fill="#EEF3FE" d="M694.422 75.324h41.405c1.52 0 3.026-.302 4.431-.888a11.568 11.568 0 0 0 3.756-2.53 11.677 11.677 0 0 0 2.51-3.784c.581-1.415.881-2.932.88-4.464V17.343c0-3.093-1.219-6.06-3.391-8.247a11.534 11.534 0 0 0-8.186-3.416c-3.455 50.01-41.405 54.608-41.405 54.608v15.036Z"/>
    <path fill="#E8EDFA" d="M697.754 75.323V5.679h-3.338v69.644h3.338Zm14.168 0h23.902a11.5 11.5 0 0 0 4.431-.888 11.572 11.572 0 0 0 3.757-2.529 11.659 11.659 0 0 0 2.509-3.784 11.74 11.74 0 0 0 .881-4.464V31.144c-.005 32.834-35.48 44.18-35.48 44.18Z"/>
    <path fill="#DADFEA" d="M749.559 57.528V23.47h-2.165v34.058h2.165Z"/>
    <path fill="#E8EDFA" d="M747.395 57.53h16.065a8.925 8.925 0 0 0 6.335-2.644 9.058 9.058 0 0 0 2.625-6.383V32.496a9.059 9.059 0 0 0-.823-3.784 8.999 8.999 0 0 0-2.325-3.084c3.038 24.95-21.875 28.761-21.875 28.761l-.002 3.14Z"/>
    <path fill="#F4F7FE" d="M467.42 35.261H0v10.48h467.42v-10.48ZM1250 36.34H772.422v10.48H1250V36.34Z"/>
  </g>
  <defs>
    <clipPath id="a">
      <path fill="#fff" d="M0 0h1250v81H0z"/>
    </clipPath>
  </defs>
</svg>
