<svg xmlns="http://www.w3.org/2000/svg" width="81" height="80" fill="none" viewBox="0 0 81 80">
  <path fill="#EE7035" d="M62.207 10H28.293c-4.424 0-8.043 3.631-8.043 8.069v2.745h30.678c4.424 0 8.043 3.632 8.043 8.07V49h3.236c4.424 0 8.043-3.631 8.043-8.069V18.07c0-4.438-3.62-8.069-8.043-8.069Z"/>
  <path fill="#B83B00" d="M57.08 20H22.628a8.08 8.08 0 0 0-2.378.357v.018h31.165c4.493 0 8.17 3.687 8.17 8.195V49h3.287a8.08 8.08 0 0 0 2.378-.357V28.195c0-4.507-3.677-8.195-8.17-8.195Z"/>
  <path fill="#00ABE0" d="M52.207 20H18.293c-4.424 0-8.043 3.652-8.043 8.116v22.996c0 4.464 3.62 8.116 8.043 8.116h20.355c.872 0 1.524.82 1.324 1.677a34.594 34.594 0 0 1-2.587 7.285c-.548 1.13.7 2.277 1.759 1.615 3.063-1.913 7.422-5.115 11.093-9.642a2.535 2.535 0 0 1 1.97-.935c4.424 0 8.043-3.652 8.043-8.116V28.116c0-4.464-3.62-8.116-8.043-8.116Z"/>
  <path fill="#099DD1" d="M55.926 50.931V28.069c0-4.438-3.004-8.069-6.676-8.069h4.324c3.672 0 6.676 3.631 6.676 8.069v22.862c0 4.438-3.5 8.069-6.676 8.069H51.25c3.672 0 4.676-3.631 4.676-8.069Z"/>
  <path fill="#6ADCFF" d="M18.92 42.194a2.67 2.67 0 1 0 0-5.341 2.67 2.67 0 0 0 0 5.341Zm8.628 0a2.67 2.67 0 1 0 0-5.341 2.67 2.67 0 0 0 0 5.341Zm8.625 0a2.67 2.67 0 1 0 0-5.341 2.67 2.67 0 0 0 0 5.341Zm8.627 0a2.67 2.67 0 1 0 0-5.341 2.67 2.67 0 0 0 0 5.341Z"/>
</svg>
