<svg xmlns="http://www.w3.org/2000/svg" width="81" height="80" fill="none" viewBox="0 0 81 80">
  <path fill="#00ABE0" d="M62.85 33.847a6.906 6.906 0 1 0 0-13.811 6.906 6.906 0 0 0 0 13.811Z"/>
  <path fill="#099DD1" d="M62.85 33.847V20.036a6.913 6.913 0 0 1 6.905 6.906 6.913 6.913 0 0 1-6.905 6.905Z"/>
  <path fill="#00ABE0" d="M72.894 46.59v13.582c0 2.101-1.715 3.81-3.825 3.81H55.825a1.884 1.884 0 0 1-1.883-1.883c0-1.831-1.012-11.109-1.012-15.508 0-4.672 3.824-8.474 8.525-8.474h2.913c4.701 0 8.526 3.802 8.526 8.474Z"/>
  <path fill="#099DD1" d="M72.894 46.59v13.582a3.821 3.821 0 0 1-3.824 3.81h-6.22V38.117h1.519c4.7 0 8.525 3.802 8.525 8.474Z"/>
  <path fill="#00ABE0" d="M18.652 33.847a6.906 6.906 0 1 0 0-13.811 6.906 6.906 0 0 0 0 13.811Z"/>
  <path fill="#099DD1" d="M18.652 33.847V20.036a6.913 6.913 0 0 1 6.906 6.906 6.913 6.913 0 0 1-6.906 6.905Z"/>
  <path fill="#00ABE0" d="M28.572 46.59c0 4.541-1.012 13.594-1.012 15.509 0 1.04-.844 1.883-1.884 1.883H12.3a3.69 3.69 0 0 1-3.693-3.679V46.591c0-4.672 3.825-8.474 8.526-8.474h2.913c4.701 0 8.526 3.802 8.526 8.474Z"/>
  <path fill="#099DD1" d="M28.572 46.59c0 4.541-1.012 13.594-1.012 15.509 0 1.04-.844 1.883-1.884 1.883h-7.024V38.117h1.394c4.701 0 8.526 3.802 8.526 8.474Z"/>
  <path fill="#EE7035" d="M40.752 33.847c6.033 0 10.924-4.89 10.924-10.923S46.785 12 40.752 12c-6.033 0-10.924 4.89-10.924 10.924 0 6.033 4.89 10.923 10.924 10.923Z"/>
  <path fill="#DD4600" d="M40.75 33.847V12c6.023 0 10.924 4.9 10.924 10.924 0 6.023-4.9 10.923-10.924 10.923Z"/>
  <path fill="#EE7035" d="M57.702 53.312v10.29A4.402 4.402 0 0 1 53.305 68H28.198a4.402 4.402 0 0 1-4.397-4.397V53.312c0-8.379 6.817-15.195 15.195-15.195h3.51c8.38 0 15.196 6.816 15.196 15.195Z"/>
  <path fill="#DD4600" d="M57.7 53.312v10.29A4.402 4.402 0 0 1 53.304 68H40.75V38.117h1.755c8.379 0 15.196 6.816 15.196 15.195Z"/>
</svg>
