<svg xmlns="http://www.w3.org/2000/svg" width="81" height="80" fill="none" viewBox="0 0 81 80">
  <path fill="#7C7D7D" d="M73.083 49.917v2.833a2.833 2.833 0 0 1-2.834 2.833h-59.5a2.833 2.833 0 0 1-2.833-2.833v-2.833h65.167Z"/>
  <path fill="#919191" d="M73.083 49.917v2.833h-59.5a2.833 2.833 0 0 1-2.833-2.833h62.333Z"/>
  <path fill="#374F68" d="M61.749 61.25a5.667 5.667 0 1 0 0-11.333 5.667 5.667 0 0 0 0 11.333Zm-32.584-5.667a5.667 5.667 0 1 1-11.334.024 5.667 5.667 0 0 1 11.334-.024Z"/>
  <path fill="#425B72" d="M28.656 57.907a5.666 5.666 0 0 1-7.48-7.48 5.667 5.667 0 0 1 7.48 7.48Zm38.25 0a5.666 5.666 0 0 1-7.48-7.48 5.667 5.667 0 0 1 7.48 7.48Z"/>
  <path fill="#EDEBF2" d="M23.5 57a1.416 1.416 0 1 1 .016-2.833A1.416 1.416 0 0 1 23.5 57Zm38.249 0a1.423 1.423 0 1 1-.27-2.833c2.027-.411 2.282 2.833.27 2.833Z"/>
  <path fill="#DAD7E5" d="M50.416 18.75h-42.5v31.167h42.5V18.75Z"/>
  <path fill="#EDEBF2" d="M50.417 18.75v28.333h-34a5.667 5.667 0 0 1-5.667-5.666V18.75h39.667Z"/>
  <path fill="#F18D5D" d="M73.083 49.917H50.416V27.25h12.042c2.833 0 3.3 1.573 9.491 9.818 1.488 1.997 1.134 2.932 1.134 12.849Z"/>
  <path fill="#F39B72" d="M73.083 47.083H57.5a4.25 4.25 0 0 1-4.25-4.25V27.25c9.25 0 10.922-.552 12.608 1.7 8.344 11.135 7.225 7.75 7.225 18.133Z"/>
  <path fill="#FFBA55" d="M58.915 45.667H57.5a1.416 1.416 0 1 1 0-2.834h1.416a1.417 1.417 0 1 1 0 2.834Z"/>
  <path fill="#DF8761" d="M40.499 25.833H17.832v17h22.667v-17Z"/>
  <path fill="#F29B75" d="M40.5 25.833V40H24.915a4.25 4.25 0 0 1-4.25-4.25v-9.917h19.833Z"/>
  <path fill="#FCE2D7" d="M33.416 25.833v7.084l-4.25-1.417-4.25 1.417v-7.084h8.5Z"/>
  <path fill="#FAD4C2" d="M33.417 25.833v4.25l-4.25-1.416-1.417.467v-3.3h5.667Z"/>
  <path fill="#9FDBF3" d="M72.756 38.583h-13.84a2.833 2.833 0 0 1-2.834-2.833v-8.5c10.13 0 7.537-1.29 14.875 8.5.753.838 1.36 1.796 1.8 2.833Z"/>
  <path fill="#B2E5FB" d="M70.958 35.75h-9.209a2.833 2.833 0 0 1-2.833-2.833V27.25c6.8 0 5.03-.85 12.042 8.5Z"/>
</svg>
