<svg xmlns="http://www.w3.org/2000/svg" width="56" height="56" fill="none" viewBox="0 0 56 56">
  <path fill="#2A61DB" d="M50.692 41.225a185.554 185.554 0 0 1-.105-5.899c0-7.492-5.588-13.965-12.996-15.055l-.873-.128L20.17 36.72l.128.868c1.088 7.413 7.558 13 15.055 13 2.336 0 4.275.055 5.882.102 1.13.035 2.117.063 2.982.063 2.544 0 4.065-.248 5.176-1.36 1.493-1.492 1.425-3.722 1.3-8.167Z"/>
  <path fill="#BFD0F4" d="M22.178 5.25c-9.322 0-16.905 7.588-16.905 16.914 0 2.644-.063 4.835-.12 6.653-.144 4.916-.216 7.385 1.392 8.992 1.19 1.19 2.853 1.459 5.635 1.459.97 0 2.079-.035 3.35-.07 1.813-.054 4.007-.12 6.65-.12 9.322 0 16.905-7.585 16.905-16.911 0-9.327-7.583-16.915-16.905-16.915l-.002-.002ZM42 34.416h-2.334a1.75 1.75 0 0 1 0-3.5h2.333a1.75 1.75 0 0 1 0 3.5Zm.089 6.72H35a1.75 1.75 0 0 1 0-3.5h7.089a1.75 1.75 0 0 1 0 3.5Z"/>
  <path fill="#2A61DB" d="M28.603 26.129c.714-1.158 1.148-2.506 1.148-3.962 0-4.182-3.402-7.584-7.584-7.584-4.181 0-7.583 3.402-7.583 7.584 0 4.181 3.402 7.583 7.583 7.583a7.498 7.498 0 0 0 3.962-1.148l.635.635a1.746 1.746 0 0 0 2.473 0 1.75 1.75 0 0 0 0-2.476l-.634-.634v.002Zm-6.436.121a4.088 4.088 0 0 1-4.083-4.083 4.088 4.088 0 0 1 4.083-4.084 4.088 4.088 0 0 1 4.084 4.084c0 .478-.098.93-.25 1.358l-.096-.096a1.75 1.75 0 1 0-2.475 2.476l.095.095c-.427.152-.88.25-1.358.25Z"/>
</svg>
