<svg xmlns="http://www.w3.org/2000/svg" width="81" height="80" fill="none" viewBox="0 0 81 80">
  <path fill="#B83B00" d="M14.35 47.072a2.369 2.369 0 0 1-1.663-4.053l8.71-8.597a2.368 2.368 0 1 1 3.327 3.37l-8.71 8.598a2.36 2.36 0 0 1-1.664.682Zm52.615-.056a2.358 2.358 0 0 1-1.675-.694l-7.907-7.907a2.368 2.368 0 1 1 3.35-3.35l7.907 7.907a2.368 2.368 0 0 1-1.675 4.042v.002Z"/>
  <path fill="#ECECEC" d="M54.573 61.241H26.926a7.168 7.168 0 0 1-7.168-7.168V20.537a7.168 7.168 0 0 1 7.168-7.167h20.863l13.952 15.345v25.358a7.168 7.168 0 0 1-7.168 7.168Z"/>
  <path fill="#D3D3D3" d="M51.226 28.715H61.74L47.79 13.37v11.908a3.437 3.437 0 0 0 3.436 3.437Z"/>
  <path fill="#C8C8C8" d="M39.81 34.508h-9.176a2.368 2.368 0 0 1 0-4.737h9.175a2.368 2.368 0 1 1 0 4.737Zm10.108 7.229H30.634a2.368 2.368 0 0 1 0-4.737h19.284a2.368 2.368 0 0 1 0 4.737Z"/>
  <path fill="#EE7035" d="M67.16 69.267H14.34a2.368 2.368 0 0 1-2.367-2.368v-21.96a2.367 2.367 0 0 1 2.368-2.368h13.148a2.366 2.366 0 0 1 2.368 2.368v2.669c0 1.264 1.465 2.332 3.199 2.332h14.226c1.734 0 3.199-1.068 3.199-2.332v-2.669a2.369 2.369 0 0 1 2.368-2.368h14.31a2.366 2.366 0 0 1 2.37 2.368V66.9a2.368 2.368 0 0 1-2.37 2.368Z"/>
</svg>
