<svg xmlns="http://www.w3.org/2000/svg" width="81" height="80" fill="none" viewBox="0 0 81 80">
  <path fill="#EE7035" d="M70.626 38H54.399c-.52 0-.971-.359-1.092-.866a13.071 13.071 0 0 0-9.688-9.668 1.125 1.125 0 0 1-.869-1.095V10.126c0-.671.582-1.19 1.248-1.12 7.088.753 13.656 3.88 18.767 8.998 5.098 5.107 8.218 11.666 8.978 18.744A1.127 1.127 0 0 1 70.626 38Z"/>
  <path fill="#DD4600" d="M42.75 26.35V23c7.813.968 14.01 7.17 15 15h-3.348c-.52 0-.972-.36-1.092-.868-1.14-4.787-4.912-8.56-9.69-9.685a1.127 1.127 0 0 1-.87-1.097Z"/>
  <path fill="#FFDC65" d="M71.744 43.25a31.26 31.26 0 0 1-6.653 16.327 1.106 1.106 0 0 1-1.657.094l-8.993-9.106-2.367-2.396a1.139 1.139 0 0 1-.156-1.392 13.058 13.058 0 0 0 1.585-3.9A1.116 1.116 0 0 1 54.587 42h16.05c.663 0 1.176.582 1.107 1.25Z"/>
  <path fill="#FFC846" d="M57.75 42c-.36 3.367-1.563 6.452-3.374 9l-2.31-2.518a1.267 1.267 0 0 1-.152-1.463 14.327 14.327 0 0 0 1.547-4.098c.114-.538.551-.92 1.058-.92h3.231V42Z"/>
  <path fill="#00ABE0" d="M60.424 62.443a1.12 1.12 0 0 1-.091 1.661C54.823 68.571 48.008 71 40.818 71c-8.298 0-16.1-3.234-21.968-9.105-5.836-5.838-9.063-13.59-9.1-21.84a31.13 31.13 0 0 1 9.1-22.122c5.075-5.078 11.598-8.18 18.638-8.927.66-.07 1.237.447 1.237 1.111v16.117c0 .52-.36.968-.866 1.087-5.708 1.342-9.971 6.478-9.971 12.594 0 7.132 5.8 12.937 12.93 12.937 2.506 0 4.848-.718 6.832-1.959a1.117 1.117 0 0 1 1.384.154l11.39 11.396Z"/>
  <path fill="#099DD1" d="m49.103 50.969 2.397 2.365A17.369 17.369 0 0 1 40.792 57c-9.577.002-17.267-7.564-17.292-17.015-.024-8.75 6.628-15.972 15.214-16.985v3.306c0 .517-.363.962-.873 1.08-5.752 1.334-10.048 6.44-10.048 12.518 0 7.09 5.845 12.858 13.03 12.858 2.526 0 4.886-.713 6.885-1.946a1.138 1.138 0 0 1 1.395.153Z"/>
</svg>
