<svg xmlns="http://www.w3.org/2000/svg" width="81" height="80" fill="none" viewBox="0 0 81 80">
  <g clip-path="url(#a)">
    <path fill="#F39B72" d="M63.767 9H8.054a3.992 3.992 0 0 0-3.992 3.992v39.394a3.992 3.992 0 0 0 3.992 3.991h55.713a3.992 3.992 0 0 0 3.992-3.992V12.992A3.992 3.992 0 0 0 63.767 9Z"/>
    <path fill="#EE7035" d="M63.603 10.213H8.219a3.193 3.193 0 0 0-3.194 3.194v38.562a3.193 3.193 0 0 0 3.194 3.193h55.384a3.193 3.193 0 0 0 3.193-3.193V13.407a3.193 3.193 0 0 0-3.193-3.194Z"/>
    <path fill="#F39B72" d="M61.247 12.656H10.574a3.193 3.193 0 0 0-3.193 3.194v31.035a3.193 3.193 0 0 0 3.193 3.193h50.673a3.193 3.193 0 0 0 3.193-3.193V15.85a3.193 3.193 0 0 0-3.193-3.194Z"/>
    <path fill="#FAD4C2" d="M60.982 13.594H10.838a2.395 2.395 0 0 0-2.395 2.395v30.607a2.395 2.395 0 0 0 2.395 2.395h50.144a2.395 2.395 0 0 0 2.395-2.395V15.989a2.395 2.395 0 0 0-2.395-2.396Z"/>
    <path fill="#002C41" fill-opacity=".1" d="M61.155 13.594h-50.49a2.222 2.222 0 0 0-2.222 2.222v1.704c0-1.228.995-2.223 2.223-2.223h50.489c1.228 0 2.222.995 2.222 2.223v-1.704a2.222 2.222 0 0 0-2.222-2.223Z"/>
    <path fill="#EE7035" d="M26.488 64.418h18.846a3.993 3.993 0 0 1 3.992 3.991v.971c0 .44-.358.798-.798.798H23.294a.799.799 0 0 1-.798-.798v-.97a3.993 3.993 0 0 1 3.992-3.992Z"/>
    <path fill="#F39B72" d="M46.211 66.345h-20.6A3.698 3.698 0 0 0 22.5 68.04l-.002.084v1.314c0 .408.332.74.74.74h25.348a.74.74 0 0 0 .74-.74v-1.314l-.001-.084a3.7 3.7 0 0 0-3.112-1.695h-.002Z"/>
    <path fill="#FAD4C2" d="M42.74 56.377H29.08v8.042h13.66v-8.042Z"/>
    <path fill="#EE7035" d="M42.74 56.377H29.08v2.124h13.66v-2.124Z"/>
    <path fill="#FAD4C2" d="M37.373 52.814a1.482 1.482 0 1 0-2.925-.475 1.482 1.482 0 0 0 2.925.475Z"/>
    <path fill="#EE7035" d="M35.911 53.502a1.481 1.481 0 0 1-1.454-1.204 1.482 1.482 0 1 0 2.91 0A1.482 1.482 0 0 1 35.91 53.5Z"/>
    <path fill="#D4DFF8" d="M73.7 29.319H55.179a2.395 2.395 0 0 0-2.395 2.395v36.07a2.395 2.395 0 0 0 2.395 2.394h18.523a2.395 2.395 0 0 0 2.395-2.394v-36.07a2.395 2.395 0 0 0-2.395-2.395Z"/>
    <path fill="#6A90E6" d="M73.68 30.258H55.2c-.816 0-1.477.66-1.477 1.477v36.03c0 .815.66 1.476 1.477 1.476h18.48c.816 0 1.477-.661 1.477-1.477v-36.03c0-.815-.66-1.476-1.476-1.476Z"/>
    <path fill="#fff" d="M66.681 66.356a2.306 2.306 0 1 0-4.487-1.059 2.306 2.306 0 0 0 4.487 1.06Z"/>
    <path fill="#2A61DB" d="M65.874 66.166A1.477 1.477 0 1 0 63 65.487a1.477 1.477 0 0 0 2.875.679Z"/>
    <path fill="#7FA0E9" d="M72.321 31.458H56.558c-.882 0-1.597.715-1.597 1.597v26.651c0 .882.715 1.597 1.597 1.597H72.32c.882 0 1.597-.715 1.597-1.597V33.055c0-.882-.715-1.597-1.597-1.597Z"/>
    <path fill="#2A61DB" d="M71.759 32.946h-14.64a.996.996 0 0 0-.996.997v24.875c0 .55.446.997.996.997h14.64c.55 0 .996-.446.996-.997V33.943a.996.996 0 0 0-.996-.997Z"/>
  </g>
  <defs>
    <clipPath id="a">
      <path fill="#fff" d="M4.063 9h72.034v61.18H4.063z"/>
    </clipPath>
  </defs>
</svg>
