<svg xmlns="http://www.w3.org/2000/svg" width="81" height="80" fill="none" viewBox="0 0 81 80">
  <g clip-path="url(#a)">
    <path fill="#7FA0E9" d="M71.5 52v19h-12l12-19Z"/>
    <path fill="#EDF4FA" d="M63.18 52.68 65.5 49l6 3-12 19-6-3 1.94-3.06 7.74-12.26Z"/>
    <path fill="#FEB589" d="M22.09 37.59A1.955 1.955 0 0 1 23.5 37a6.87 6.87 0 0 1 3.69 1.07L36.5 44H32a3.414 3.414 0 0 0-1.99.63L21.67 39c-.05-.04-.11-.07-.16-.11.021-.491.228-.956.58-1.3Z"/>
    <path fill="#FEB589" d="M30.5 51s-8.95-7.16-13.03-10.42a7.903 7.903 0 0 0-.97-.66v-.19A1.795 1.795 0 0 1 18.36 38h.14a5.45 5.45 0 0 1 3.01.89c.05.04.11.07.16.11l8.34 5.63c-.171.12-.332.253-.48.4a3.46 3.46 0 0 0-1.03 2.47A3.5 3.5 0 0 0 32 51h-1.5Z"/>
    <path fill="#FFD6BD" d="M17.47 40.58C21.55 43.84 30.5 51 30.5 51H32a3.5 3.5 0 0 1-3.233-4.839 3.46 3.46 0 0 1 .763-1.131c.148-.147.309-.28.48-.4A3.414 3.414 0 0 1 32 44h18.5a9.691 9.691 0 0 1 6.83 2.83l5.85 5.85-7.74 12.26-.94-.94H37.19a12.544 12.544 0 0 1-8.23-3.07l-18.33-15.9a3.476 3.476 0 0 1-1.13-2.56v-.09A3.376 3.376 0 0 1 12.88 39h.07a7.25 7.25 0 0 1 3.55.92c.34.196.663.416.97.66Z"/>
    <path fill="#FEC09B" d="M47.5 48h-15a3.985 3.985 0 0 1-3.546-2.186A3.447 3.447 0 0 0 28.5 47.5 3.5 3.5 0 0 0 32 51h18.5a3 3 0 0 0-3-3Z"/>
    <path fill="#FEC09B" d="m60.722 50.222-2.685 4.221A12.001 12.001 0 0 1 47.913 60H35.6a5.994 5.994 0 0 1-3.74-1.309L13.148 43.773a4 4 0 0 1-1.323-4.589A3.364 3.364 0 0 0 9.5 42.38v.09a3.477 3.477 0 0 0 1.13 2.56l18.33 15.9A12.544 12.544 0 0 0 37.19 64H54.5l.94.94 7.74-12.26-2.458-2.458Z"/>
    <path fill="#EDA377" d="M28.5 47.5a3.461 3.461 0 0 1 1.03-2.47c.148-.147.309-.28.48-.4l-.727-.491a3.994 3.994 0 0 1-4.49.138l-7.241-4.608a.981.981 0 0 1-.323-1.306 1.682 1.682 0 0 0-.729 1.367v.19c.34.196.663.416.97.66C21.55 43.84 30.5 51 30.5 51H32a3.5 3.5 0 0 1-3.5-3.5Z"/>
    <path fill="#EDA377" d="M32.106 43a6.001 6.001 0 0 1-3-.8l-5.127-2.957A1.987 1.987 0 0 1 22.92 37.1a1.982 1.982 0 0 0-1.411 1.8c.05.04.11.07.16.11l8.34 5.63A3.413 3.413 0 0 1 32 44h4.5l-1.57-1h-2.824Z"/>
    <path fill="#5581E2" d="M68.946 66a2 2 0 0 1-1.736-2.992L71.5 55.5V52l-12 19h12v-5h-2.554Z"/>
    <path fill="#D6E0EB" d="m68.522 50.511-8.189 12.656a3.99 3.99 0 0 1-4.759 1.561l-.134.212L53.5 68l6 3 12-19-2.978-1.489Z"/>
    <path fill="#FAD4C2" d="M55.5 24c0 1.089-2.314 1.9-2.54 2.915-.233 1.051 1.5 2.805 1.057 3.754-.443.949-2.881.663-3.526 1.491-.645.828.174 3.188-.638 3.853s-2.867-.683-3.809-.218c-.926.458-1.18 2.948-2.206 3.187-.994.232-2.275-1.894-3.338-1.894-1.063 0-2.344 2.126-3.338 1.894-1.027-.239-1.281-2.729-2.207-3.187-.942-.465-3 .878-3.809.217-.809-.661.011-3.02-.637-3.852-.648-.832-3.072-.528-3.526-1.492-.447-.948 1.29-2.7 1.057-3.754C27.814 25.9 25.5 25.088 25.5 24s2.314-1.9 2.54-2.915c.233-1.051-1.5-2.805-1.057-3.754.443-.949 2.881-.663 3.526-1.491.645-.828-.174-3.188.638-3.853s2.867.683 3.809.218c.926-.458 1.18-2.948 2.206-3.187.994-.232 2.275 1.894 3.338 1.894 1.063 0 2.344-2.126 3.338-1.894 1.027.239 1.281 2.729 2.207 3.187.942.465 3-.878 3.809-.217.809.661-.011 3.02.637 3.852.648.832 3.072.528 3.526 1.492.447.948-1.29 2.7-1.057 3.754.226 1.014 2.54 1.826 2.54 2.914Z"/>
    <path fill="#EE7035" d="M52.5 24c0 .871-1.851 1.517-2.032 2.332-.187.841 1.2 2.244.845 3-.355.756-2.3.531-2.82 1.193s.139 2.551-.511 3.082c-.65.531-2.293-.546-3.046-.174-.753.372-.945 2.359-1.766 2.55-.8.185-1.82-1.515-2.67-1.515-.85 0-1.875 1.7-2.671 1.515-.821-.191-1.024-2.184-1.765-2.55-.741-.366-2.4.7-3.047.174-.647-.526.009-2.416-.51-3.082-.519-.666-2.457-.422-2.821-1.193-.364-.771 1.033-2.162.846-3-.181-.815-2.032-1.461-2.032-2.332 0-.871 1.851-1.517 2.032-2.332.187-.841-1.2-2.244-.845-3 .355-.756 2.3-.531 2.82-1.193s-.139-2.551.511-3.082c.65-.531 2.293.546 3.046.174.753-.372.945-2.359 1.766-2.55.8-.185 1.82 1.515 2.67 1.515.85 0 1.875-1.7 2.671-1.515.821.191 1.024 2.184 1.765 2.55.741.366 2.4-.7 3.047-.174.647.526-.009 2.416.51 3.082.519.666 2.457.422 2.821 1.193.364.771-1.033 2.162-.846 3 .181.815 2.032 1.461 2.032 2.332Z"/>
    <path fill="#EE7035" d="M26.193 26.366c.317.217.609.47.869.752-.098.408-.257.8-.472 1.16-.447.88-.954 1.876-.512 2.816.455.966 1.555 1.184 2.526 1.377a5.2 5.2 0 0 1 1.1.287c.08.407.102.823.063 1.236-.032 1-.067 2.13.743 2.792.81.662 1.9.382 2.857.128a6.433 6.433 0 0 1 1.115-.238c.236.327.425.685.562 1.065.4.925.852 1.974 1.887 2.216.129.03.26.044.392.045a3.67 3.67 0 0 0 2.209-1.19c.286-.276.602-.52.942-.725.363.192.695.436.986.725.742.647 1.584 1.382 2.6 1.145 1.035-.242 1.487-1.29 1.886-2.216.138-.361.31-.71.512-1.039a4.24 4.24 0 0 1 1.165.212c.955.255 2.036.544 2.858-.127.822-.671.774-1.793.743-2.791-.033-.4-.022-.803.035-1.2.36-.161.741-.27 1.132-.322.971-.192 2.071-.41 2.525-1.376.443-.94-.064-1.937-.511-2.817a4.962 4.962 0 0 1-.481-1.124c.254-.303.55-.568.878-.788C55.6 25.76 56.5 25.073 56.5 24c0-1.073-.9-1.76-1.693-2.366a5.098 5.098 0 0 1-.869-.752c.098-.408.257-.8.472-1.16.447-.88.954-1.876.512-2.816-.455-.966-1.555-1.184-2.526-1.377a5.2 5.2 0 0 1-1.1-.287 4.286 4.286 0 0 1-.063-1.236c.032-1 .067-2.13-.743-2.792-.81-.662-1.9-.383-2.857-.128a5.787 5.787 0 0 1-1.115.238 4.328 4.328 0 0 1-.562-1.065c-.4-.925-.852-1.974-1.887-2.216-1.015-.234-1.858.5-2.6 1.145-.286.276-.602.52-.942.725a4.171 4.171 0 0 1-.986-.725c-.742-.647-1.583-1.377-2.6-1.145-1.035.242-1.487 1.29-1.886 2.216-.14.362-.313.71-.518 1.041a4.228 4.228 0 0 1-1.165-.212c-.954-.254-2.036-.544-2.858.127-.822.671-.774 1.791-.743 2.785.033.4.022.803-.035 1.2-.36.162-.741.27-1.132.322-.971.192-2.071.41-2.525 1.376-.443.94.064 1.937.511 2.817.206.353.368.73.481 1.124-.254.303-.55.568-.878.788-.793.613-1.693 1.3-1.693 2.373 0 1.073.9 1.76 1.693 2.366Zm1.214-3.143a3.674 3.674 0 0 0 1.609-1.923 3.83 3.83 0 0 0-.643-2.487 5.937 5.937 0 0 1-.455-1.043 5.645 5.645 0 0 1 1.075-.281 3.634 3.634 0 0 0 2.3-1.036 3.81 3.81 0 0 0 .473-2.513 6.117 6.117 0 0 1 .034-1.14c.357.042.71.115 1.053.22.812.33 1.716.359 2.547.08a3.705 3.705 0 0 0 1.487-2.05c.143-.33.372-.863.477-1.024.307.196.595.42.86.669a3.75 3.75 0 0 0 2.276 1.217 3.747 3.747 0 0 0 2.278-1.212c.26-.24.538-.459.833-.654.198.32.367.659.505 1.01.24.834.766 1.557 1.484 2.044a3.67 3.67 0 0 0 2.544-.083A5.895 5.895 0 0 1 49.2 12.8c.046.38.056.762.03 1.144a3.807 3.807 0 0 0 .47 2.511c.618.61 1.434.977 2.3 1.036a5.69 5.69 0 0 1 1.075.282c-.118.361-.27.71-.455 1.042a3.83 3.83 0 0 0-.643 2.487c.295.81.864 1.49 1.609 1.922.324.224.62.485.885.776a5.216 5.216 0 0 1-.885.777 3.674 3.674 0 0 0-1.602 1.923 3.83 3.83 0 0 0 .643 2.487c.185.332.337.681.455 1.043a5.645 5.645 0 0 1-1.075.281 3.634 3.634 0 0 0-2.3 1.036 3.812 3.812 0 0 0-.473 2.513c.024.38.013.762-.034 1.14a6.064 6.064 0 0 1-1.053-.22 3.68 3.68 0 0 0-2.547-.08 3.705 3.705 0 0 0-1.487 2.05c-.143.33-.372.863-.477 1.024a5.927 5.927 0 0 1-.86-.669 3.75 3.75 0 0 0-2.276-1.217 3.746 3.746 0 0 0-2.278 1.212c-.26.24-.538.459-.833.654a6.286 6.286 0 0 1-.5-1.01A3.712 3.712 0 0 0 35.4 34.9a3.675 3.675 0 0 0-2.544.083 5.905 5.905 0 0 1-1.054.22 6.117 6.117 0 0 1-.03-1.144 3.807 3.807 0 0 0-.473-2.512 3.626 3.626 0 0 0-2.3-1.036 5.72 5.72 0 0 1-1.075-.282c.118-.361.27-.71.455-1.042a3.83 3.83 0 0 0 .643-2.487 3.676 3.676 0 0 0-1.609-1.922 5.174 5.174 0 0 1-.891-.778c.265-.292.562-.552.885-.777Z"/>
    <path fill="#fff" d="m45.793 17.293-12 12 1.414 1.414 12-12-1.414-1.414ZM43.5 26a3 3 0 1 0 0 5.999 3 3 0 0 0 0-5.999Zm0 4a1 1 0 1 1 0-2 1 1 0 0 1 0 2Zm-6-8a3 3 0 1 0 0-5.999 3 3 0 0 0 0 5.999Zm0-4a1 1 0 1 1 0 2.002 1 1 0 0 1 0-2.002Z"/>
    <path fill="#000" d="M50.5 50h-2v2h2v-2Z"/>
    <path fill="#335667" d="m71.948 51.105-6-3a1 1 0 0 0-1.293.36l-9.4 14.879-.052-.051A1 1 0 0 0 54.5 63H37.19a11.55 11.55 0 0 1-7.574-2.825l-18.31-15.883a2.529 2.529 0 0 1-.805-1.912A2.4 2.4 0 0 1 12.95 40a6.25 6.25 0 0 1 3.042.782c.299.172.584.365.853.579l13.03 10.42A1 1 0 0 0 30.5 52h16v-2H32a2.5 2.5 0 0 1-2.31-3.456c.126-.302.312-.576.546-.806a2.69 2.69 0 0 1 .355-.294 2.4 2.4 0 0 1 1.41-.444h18.5a8.69 8.69 0 0 1 6.123 2.537l4.17 4.17 1.415-1.413-4.172-4.171c-2-1.997-4.71-3.12-7.536-3.123H32a4.43 4.43 0 0 0-1.952.449l-7.389-4.983c.043-.064.092-.124.146-.178A.957.957 0 0 1 23.5 38a5.87 5.87 0 0 1 3.154.913l6.17 3.93 1.077-1.686-6.172-3.931A7.866 7.866 0 0 0 23.5 36a2.94 2.94 0 0 0-2.569 1.483 6.355 6.355 0 0 0-2.43-.483h-.14a2.87 2.87 0 0 0-2.55 1.519 8.521 8.521 0 0 0-2.93-.52 4.406 4.406 0 0 0-4.38 4.47 4.5 4.5 0 0 0 1.474 3.316l18.326 15.9A13.551 13.551 0 0 0 37.19 65h16.9l.076.077-1.509 2.389a1 1 0 0 0 .4 1.429l6 3A.999.999 0 0 0 59.5 72h12a1 1 0 0 0 1-1V52a1 1 0 0 0-.553-.895ZM18.36 39h.14a4.471 4.471 0 0 1 2.444.715l.017.012.148.1 7.332 4.948a4.418 4.418 0 0 0-.942 2.548L18.1 39.8a7.302 7.302 0 0 0-.509-.376l-.007-.006A.88.88 0 0 1 18.36 39Zm40.778 30.7-4.2-2.1 10.923-17.3 4.2 2.1L59.14 69.7ZM70.5 70h-9.185L70.5 55.456V70Z"/>
  </g>
  <defs>
    <clipPath id="a">
      <path fill="#fff" d="M8.5 8h64v64h-64z"/>
    </clipPath>
  </defs>
</svg>
