<svg xmlns="http://www.w3.org/2000/svg" width="81" height="80" fill="none" viewBox="0 0 81 80">
  <g clip-path="url(#a)">
    <g clip-path="url(#b)">
      <path fill="#F9A825" fill-rule="evenodd" d="M32.082 68.21h.007a18.936 18.936 0 0 0 3.458-.314l1.1 2.384a2.975 2.975 0 0 0 3.946 1.459l3.027-1.392a2.984 2.984 0 0 0 1.46-3.95l-1.104-2.385a18.957 18.957 0 0 0 3.714-4.024l2.467.914c1.49.553 3.272-.268 3.825-1.758l1.151-3.128a2.946 2.946 0 0 0-.088-2.276 2.948 2.948 0 0 0-1.67-1.544l-2.471-.914a18.77 18.77 0 0 0-.21-5.468l2.389-1.097a2.977 2.977 0 0 0 1.457-3.946l-1.393-3.03a2.982 2.982 0 0 0-3.949-1.457l-2.386 1.1a18.862 18.862 0 0 0-4.021-3.71l.912-2.47a2.954 2.954 0 0 0-.088-2.277 2.961 2.961 0 0 0-1.67-1.547l-3.126-1.155a2.97 2.97 0 0 0-2.275.087 2.95 2.95 0 0 0-1.547 1.674l-.915 2.472a18.683 18.683 0 0 0-1.958-.11h-.042v7.16h.036a11.805 11.805 0 0 1 10.653 6.847c2.714 5.894.128 12.898-5.765 15.612a11.664 11.664 0 0 1-4.91 1.082h-.014v7.162Z" clip-rule="evenodd"/>
      <path fill="#FFB74D" fill-rule="evenodd" d="m10.79 46.365 2.47.91a18.804 18.804 0 0 0 .208 5.468l-2.387 1.098a2.981 2.981 0 0 0-1.457 3.952l1.392 3.024a2.978 2.978 0 0 0 3.947 1.459l2.388-1.103a19.014 19.014 0 0 0 4.02 3.714l-.912 2.47a2.981 2.981 0 0 0 1.761 3.822l3.125 1.156c1.49.548 3.273-.273 3.823-1.76l.91-2.473c.665.072 1.333.108 2.004.108v-7.16a11.81 11.81 0 0 1-10.69-6.844c-2.713-5.899-.128-12.9 5.764-15.617a11.734 11.734 0 0 1 4.92-1.08h.006v-7.16a18.938 18.938 0 0 0-3.467.316l-1.097-2.386a2.981 2.981 0 0 0-3.95-1.46l-3.024 1.395a2.976 2.976 0 0 0-1.456 3.95l1.097 2.385a18.92 18.92 0 0 0-3.711 4.02l-2.47-.915a2.968 2.968 0 0 0-2.277.09c-.72.333-1.27.928-1.544 1.671l-1.155 3.128a2.981 2.981 0 0 0 1.761 3.823Z" clip-rule="evenodd"/>
      <path fill="#E53935" fill-rule="evenodd" d="M59.266 33.245h.003c.638 0 1.279-.057 1.919-.174l.61 1.322a1.65 1.65 0 0 0 2.19.81l1.678-.773a1.655 1.655 0 0 0 .81-2.19l-.612-1.324a10.516 10.516 0 0 0 2.06-2.232l1.368.507c.827.307 1.815-.149 2.122-.976l.639-1.735a1.635 1.635 0 0 0-.049-1.262 1.635 1.635 0 0 0-.927-.856l-1.37-.507c.108-1 .072-2.02-.117-3.034l1.325-.609a1.652 1.652 0 0 0 .808-2.188l-.772-1.68a1.654 1.654 0 0 0-2.19-.81l-1.324.611a10.46 10.46 0 0 0-2.23-2.059l.505-1.369a1.639 1.639 0 0 0-.049-1.264 1.643 1.643 0 0 0-.927-.858l-1.733-.64a1.647 1.647 0 0 0-2.12.977l-.508 1.371c-.36-.04-.722-.06-1.086-.061h-.023v3.972h.02a6.549 6.549 0 0 1 5.909 3.798 6.536 6.536 0 0 1-3.198 8.66 6.47 6.47 0 0 1-2.724.6h-.007v3.973Z" clip-rule="evenodd"/>
      <path fill="#EF5350" fill-rule="evenodd" d="m47.452 21.127 1.371.505c-.109 1-.073 2.019.115 3.033l-1.324.61a1.654 1.654 0 0 0-.808 2.191l.772 1.678a1.652 1.652 0 0 0 2.19.81l1.324-.612c.65.802 1.402 1.49 2.23 2.06l-.506 1.37a1.654 1.654 0 0 0 .977 2.12l1.734.641c.826.304 1.815-.151 2.12-.977l.506-1.37c.368.039.739.059 1.11.06v-3.974a6.551 6.551 0 0 1-5.93-3.796c-1.504-3.272-.07-7.156 3.198-8.663a6.508 6.508 0 0 1 2.73-.599h.003v-3.972c-.639 0-1.282.057-1.923.175l-.61-1.323a1.654 1.654 0 0 0-2.19-.81l-1.677.774a1.65 1.65 0 0 0-.808 2.19l.608 1.324c-.8.65-1.491 1.4-2.059 2.23l-1.369-.508a1.647 1.647 0 0 0-2.12.977l-.64 1.735a1.654 1.654 0 0 0 .976 2.12Z" clip-rule="evenodd"/>
      <path fill="#26A69A" fill-rule="evenodd" d="M35.033 23.57h.003c.438 0 .878-.04 1.318-.12l.42.908c.26.57.936.818 1.504.557l1.154-.53c.568-.263.817-.938.556-1.506l-.42-.91a7.228 7.228 0 0 0 1.415-1.534l.94.349a1.165 1.165 0 0 0 1.459-.67l.439-1.193a1.123 1.123 0 0 0-.034-.867 1.123 1.123 0 0 0-.637-.59l-.942-.348a7.142 7.142 0 0 0-.08-2.084l.91-.418c.569-.262.818-.938.556-1.505l-.53-1.155a1.137 1.137 0 0 0-1.506-.555l-.91.42a7.186 7.186 0 0 0-1.533-1.415l.348-.941a1.126 1.126 0 0 0-.034-.869 1.129 1.129 0 0 0-.636-.59l-1.192-.44a1.132 1.132 0 0 0-1.457.672l-.348.942a7.122 7.122 0 0 0-.747-.042h-.016v2.73h.014a4.5 4.5 0 0 1 4.06 2.61 4.492 4.492 0 0 1-4.069 6.364h-.005v2.73Z" clip-rule="evenodd"/>
      <path fill="#4DB6AC" fill-rule="evenodd" d="m26.916 15.242.942.347a7.165 7.165 0 0 0 .079 2.085l-.91.418c-.568.26-.817.937-.556 1.506l.531 1.153c.262.568.936.818 1.505.556l.91-.42a7.25 7.25 0 0 0 1.532 1.416l-.347.941c-.216.587.084 1.24.671 1.457l1.191.441c.568.209 1.248-.104 1.458-.671l.347-.942c.253.027.508.04.763.04v-2.73a4.502 4.502 0 0 1-4.075-2.608 4.495 4.495 0 0 1 2.198-5.954 4.474 4.474 0 0 1 1.875-.411h.002v-2.73c-.438 0-.88.04-1.321.12l-.419-.909a1.136 1.136 0 0 0-1.505-.556l-1.153.531a1.135 1.135 0 0 0-.555 1.506l.418.91a7.213 7.213 0 0 0-1.415 1.532l-.94-.349a1.131 1.131 0 0 0-1.458.671l-.44 1.193c-.217.585.085 1.24.672 1.457Z" clip-rule="evenodd"/>
    </g>
  </g>
  <defs>
    <clipPath id="a">
      <path fill="#fff" d="M.75 0h80v80h-80z"/>
    </clipPath>
    <clipPath id="b">
      <path fill="#fff" d="M-2.5-3h86v86h-86z"/>
    </clipPath>
  </defs>
</svg>
